<?xml version="1.0" encoding="utf-8"?>
<!-- Generator: Adobe Illustrator 19.2.1, SVG Export Plug-In . SVG Version: 6.00 Build 0)  -->
<svg version="1.1" id="Ebene_1" xmlns="http://www.w3.org/2000/svg" xmlns:xlink="http://www.w3.org/1999/xlink" x="0px" y="0px"
	 viewBox="0 0 137.4 131" style="enable-background:new 0 0 137.4 131;" xml:space="preserve">
<style type="text/css">
	.st0{fill:#005DA9;}
	.st1{fill:#FFFFFF;}
</style>
<polygon class="st0" points="21.6,77.6 13.8,77.6 13.8,81.5 "/>
<path class="st1" d="M119.4,8.1c0.7,3.7-1.8,7.2-5.5,7.9L8.6,35c-3.8,0.7-7.4-1.7-8-5.4L0.1,27c-0.7-3.7,1.8-7.2,5.5-7.9l105.3-19
	c3.7-0.7,7.3,1.8,8,5.4L119.4,8.1z"/>
<path class="st1" d="M132,80.3l-101,18.3c1.8,12.6,13.2,17.2,34.7,13.3l5.5-1c2.4-0.4,55.9-10.3,56.8-10.5c4.9-0.9,8.1,1.7,9.2,7.9
	c0.9,5-1.1,7.4-6.1,8.3c-13.2,2.4-74.1,13.8-78.5,14c-11.4,1.1-20.1,0.1-26.3-3.2c-8.6-4.4-13.5-10.3-15-18L5.1,76.1
	c-2-10.4,2.5-19.2,13.1-26.3c7.8-5.2,17.9-9,30.1-11.2l37.8-6.8c10.2-1.8,19.3-1.7,27.4,0.4c10.7,2.7,16.7,8.3,18.3,17.3l4.1,21.8
	C136.9,76.6,135.7,79.6,132,80.3 M112.4,54.5c-1.3-6.8-15.7-7.6-43.2-2.6c-3.3,0.6-6.9,1.2-10.6,2.1c-3.6,0.6-5.1,1.1-4.7,1
	c-20.5,3.7-30.1,9-28.7,16l2,10.4l87.4-15.8L112.4,54.5z"/>
</svg>
